<svg width="17" height="17" viewBox="0 0 17 17" fill="none" xmlns="http://www.w3.org/2000/svg">
<path fill-rule="evenodd" clip-rule="evenodd" d="M3.94246 8.50003C3.94246 7.99195 4.02685 7.50483 4.17746 7.04795L1.54119 5.03479C1.02739 6.07799 0.737915 7.25346 0.737915 8.50003C0.737915 9.74555 1.02704 10.9203 1.54012 11.9628L4.17497 9.94572C4.02578 9.49097 3.94246 9.00563 3.94246 8.50003Z" fill="#FBBC05"/>
<path fill-rule="evenodd" clip-rule="evenodd" d="M8.5712 3.8778C9.67499 3.8778 10.672 4.26891 11.4553 4.90891L13.7341 2.63335C12.3454 1.42446 10.5651 0.677795 8.5712 0.677795C5.47561 0.677795 2.81512 2.44811 1.54114 5.03477L4.17741 7.04793C4.78485 5.20402 6.51637 3.8778 8.5712 3.8778Z" fill="#EB4335"/>
<path fill-rule="evenodd" clip-rule="evenodd" d="M8.5712 13.1222C6.51637 13.1222 4.78485 11.796 4.17741 9.95209L1.54114 11.9649C2.81512 14.5519 5.47561 16.3222 8.5712 16.3222C10.4818 16.3222 12.3059 15.6438 13.675 14.3727L11.1726 12.4381C10.4665 12.8829 9.57743 13.1222 8.5712 13.1222Z" fill="#34A853"/>
<path fill-rule="evenodd" clip-rule="evenodd" d="M16.0486 8.50004C16.0486 8.03782 15.9773 7.54004 15.8705 7.07782H8.57129V10.1H12.7728C12.5627 11.1304 11.9909 11.9226 11.1727 12.4382L13.6751 14.3728C15.1132 13.038 16.0486 11.0497 16.0486 8.50004Z" fill="#4285F4"/>
</svg>
